<svg 
 xmlns="http://www.w3.org/2000/svg"
 xmlns:xlink="http://www.w3.org/1999/xlink"
 width="76px" height="92px">
<path fill-rule="evenodd"  fill="rgb(16, 202, 183)"
 d="M47.321,14.511 C48.808,13.022 48.808,10.610 47.321,9.123 C45.833,7.637 43.422,7.637 41.933,9.123 C40.445,10.610 40.445,13.022 41.933,14.511 C43.422,16.000 45.833,16.000 47.321,14.511 ZM35.995,11.353 C38.137,9.215 38.137,5.747 35.995,3.608 C33.858,1.470 30.392,1.470 28.252,3.608 C26.113,5.747 26.113,9.215 28.252,11.353 C30.392,13.492 33.858,13.492 35.995,11.353 ZM66.974,71.696 L50.930,44.157 C49.982,42.615 49.020,39.050 49.059,37.244 L49.059,24.593 L50.759,24.593 C51.545,24.593 52.186,23.948 52.186,23.163 L52.186,21.736 C52.186,20.952 51.545,20.306 50.759,20.306 L25.039,20.306 C24.255,20.306 23.611,20.952 23.611,21.736 L23.611,23.163 C23.611,23.948 24.255,24.593 25.039,24.593 L26.288,24.593 L26.288,37.244 C26.327,39.050 25.368,42.615 24.423,44.157 L8.376,71.696 C7.888,72.536 7.577,73.452 7.575,74.427 C7.554,75.601 8.120,76.844 9.072,77.581 C10.014,78.328 11.173,78.616 12.358,78.620 L62.989,78.620 C64.175,78.616 65.333,78.328 66.278,77.581 C67.227,76.844 67.791,75.601 67.772,74.427 C67.770,73.454 67.463,72.539 66.974,71.696 Z"/>
</svg>