<svg 
 xmlns="http://www.w3.org/2000/svg"
 xmlns:xlink="http://www.w3.org/1999/xlink"
 width="71px" height="72px">
<path fill-rule="evenodd"  fill="rgb(16, 202, 183)"
 d="M65.937,66.982 L49.143,66.982 L56.218,59.909 C57.066,60.098 57.944,60.205 58.850,60.205 C65.520,60.202 70.922,54.798 70.927,48.128 C70.922,41.458 65.520,36.055 58.850,36.051 C57.201,36.051 55.630,36.386 54.199,36.984 L45.551,28.337 L49.261,24.616 C51.571,22.103 52.949,18.821 52.949,15.223 C52.949,15.153 52.949,15.153 52.949,15.151 C52.861,7.342 46.573,1.056 38.837,0.968 C38.851,0.968 38.789,0.965 38.692,0.965 C35.103,0.962 31.804,2.318 29.353,4.576 L19.375,14.549 L4.211,16.332 C3.463,16.427 2.716,16.641 2.025,17.181 C1.332,17.694 0.796,18.687 0.821,19.641 C0.842,20.862 1.432,21.733 2.101,22.414 L31.501,51.815 C32.181,52.483 33.059,53.074 34.275,53.093 L34.344,53.093 C35.277,53.093 36.234,52.561 36.736,51.888 C37.271,51.198 37.484,50.454 37.577,49.707 L35.377,49.447 L37.580,49.701 L39.324,34.581 L42.418,31.477 L50.427,39.485 C48.176,41.677 46.774,44.738 46.772,48.128 C46.774,52.197 48.792,55.788 51.877,57.977 L42.869,66.982 L25.397,66.982 C24.585,66.982 23.919,67.648 23.919,68.462 L23.919,69.939 C23.919,70.753 24.585,71.420 25.397,71.420 L65.937,71.420 C66.749,71.420 67.414,70.753 67.414,69.939 L67.414,68.462 C67.414,67.648 66.749,66.982 65.937,66.982 ZM35.095,32.540 L33.377,47.417 L6.492,20.532 L21.421,18.773 L32.422,7.778 C34.012,6.324 36.223,5.403 38.692,5.403 C38.692,5.399 38.692,5.399 38.735,5.403 C44.089,5.447 48.472,9.827 48.512,15.126 L48.512,15.223 C48.512,17.683 47.586,19.878 46.058,21.545 L35.095,32.540 ZM58.850,40.487 C63.067,40.494 66.485,43.907 66.490,48.128 C66.485,52.345 63.067,55.759 58.850,55.768 C54.632,55.759 51.218,52.345 51.211,48.128 C51.218,43.907 54.632,40.494 58.850,40.487 Z"/>
</svg>