<svg 
 xmlns="http://www.w3.org/2000/svg"
 xmlns:xlink="http://www.w3.org/1999/xlink"
 width="64px" height="73px">
<path fill-rule="evenodd"  fill="rgb(16, 202, 183)"
 d="M44.638,72.866 L19.092,72.866 C18.311,72.866 17.675,72.231 17.675,71.447 L17.675,70.440 C17.675,69.659 18.311,69.023 19.092,69.023 L29.944,69.023 L29.946,62.414 C13.225,60.344 0.665,46.147 0.665,29.244 C0.667,17.434 6.721,6.735 16.862,0.623 L17.154,0.450 L17.185,0.430 L17.322,0.355 C17.556,0.266 17.794,0.221 18.023,0.221 C19.092,0.221 19.962,1.089 19.962,2.159 C19.962,2.769 19.680,3.333 19.190,3.704 L18.823,3.922 C17.263,4.867 15.768,5.976 14.381,7.218 L17.617,10.457 C22.179,6.452 28.017,4.253 34.097,4.253 C47.871,4.256 59.081,15.468 59.083,29.244 C59.081,35.327 56.886,41.164 52.880,45.719 L56.119,48.958 C57.358,47.571 58.460,46.085 59.398,44.536 L59.474,44.414 L59.567,44.260 C59.972,43.734 60.534,43.454 61.132,43.454 C62.201,43.454 63.071,44.322 63.071,45.390 C63.071,45.629 63.023,45.863 62.937,46.092 L62.788,46.353 L62.667,46.560 C56.539,56.652 45.861,62.674 34.097,62.674 C33.993,62.674 33.889,62.672 33.788,62.670 L33.788,69.023 L44.638,69.023 C45.423,69.023 46.058,69.659 46.058,70.440 L46.058,71.447 C46.058,72.231 45.423,72.866 44.638,72.866 L44.638,72.866 ZM11.685,9.960 C7.052,15.330 4.503,22.155 4.506,29.244 C4.537,45.528 17.809,58.800 34.097,58.828 C41.188,58.828 48.015,56.285 53.378,51.650 L50.128,48.402 C45.636,52.161 39.957,54.229 34.097,54.232 C20.318,54.229 9.108,43.021 9.108,29.244 C9.108,23.381 11.173,17.705 14.935,13.208 L11.685,9.960 L11.685,9.960 ZM34.097,8.100 C22.458,8.118 12.974,17.601 12.952,29.244 C12.974,40.881 22.458,50.365 34.097,50.386 C45.735,50.365 55.219,40.881 55.239,29.244 C55.219,17.601 45.735,8.118 34.097,8.100 L34.097,8.100 Z"/>
</svg>